<svg xmlns="http://www.w3.org/2000/svg" width="84" height="125.52" viewBox="0 0 84 125.52">
  <g id="Subtraction_1" data-name="Subtraction 1" transform="translate(2 2)" fill="red">
    <path d="M 40.0003662109375 121.7590026855469 L 39.17656707763672 120.5677032470703 L 39.17575073242188 120.566520690918 C 39.07500076293945 120.4205017089844 28.98898315429688 105.7730712890625 19.13479995727539 88.78569030761719 C 13.31019973754883 78.74478912353516 8.66706657409668 69.80735778808594 5.334399700164795 62.22165679931641 C 1.131199598312378 52.65445327758789 -1.000000357627869 45.17788696289062 -1.000000357627869 39.99960327148438 C -1.000000357627869 34.46503829956055 0.08414959162473679 29.09555435180664 2.222349643707275 24.04032135009766 C 4.287333011627197 19.15802192687988 7.243399620056152 14.7734546661377 11.00841617584229 11.00842189788818 C 14.77343273162842 7.243404865264893 19.15798377990723 4.287354946136475 24.04031562805176 2.222355127334595 C 29.09558296203613 0.08415503799915314 34.46504974365234 -0.9999949336051941 39.99959945678711 -0.9999949336051941 C 45.53414916992188 -0.9999949336051941 50.90368270874023 0.08415503799915314 55.95903396606445 2.222355127334595 C 60.84144973754883 4.287354946136475 65.22611999511719 7.243404865264893 68.99123382568359 11.00840473175049 C 72.75636291503906 14.77343845367432 75.71253204345703 19.15800476074219 77.77761840820312 24.04032135009766 C 79.91590118408203 29.09558868408203 81.00009918212891 34.46507263183594 81.00009918212891 39.99960327148438 C 81.00009918212891 45.17788696289062 78.86885070800781 52.65447235107422 74.66555023193359 62.22165679931641 C 71.33281707763672 69.807373046875 66.68958282470703 78.74480438232422 60.86484909057617 88.78570556640625 C 50.99901580810547 105.7927856445312 40.92401504516602 120.4208068847656 40.82341766357422 120.5665740966797 L 40.0003662109375 121.7590026855469 Z M 39.99959945678711 24.00040435791016 C 31.17761611938477 24.00040435791016 24.00040054321289 31.17762184143066 24.00040054321289 39.99960327148438 C 24.00040054321289 48.82209014892578 31.17761611938477 55.99968719482422 39.99959945678711 55.99968719482422 C 48.82208251953125 55.99968719482422 55.99969863891602 48.82209014892578 55.99969863891602 39.99960327148438 C 55.99969863891602 31.17762184143066 48.82208251953125 24.00040435791016 39.99959945678711 24.00040435791016 Z" stroke="none"/>
    <path d="M 39.99959945678711 119.9997024536133 L 40.00041580200195 119.9985198974609 C 40.10083389282227 119.8530349731445 50.15578460693359 105.2535018920898 59.99985122680664 88.28392028808594 C 65.80601501464844 78.27503967285156 70.43223571777344 69.37108612060547 73.75001525878906 61.81941986083984 C 77.89726257324219 52.37980651855469 80.00009918212891 45.03855514526367 80.00009918212891 39.99960327148438 C 80.00009918212891 34.59963989257812 78.94248199462891 29.36122131347656 76.85661315917969 24.42987251281738 C 74.84194946289062 19.66675567626953 71.95774841308594 15.3890380859375 68.28413391113281 11.71552181243896 C 64.61054992675781 8.042055130004883 60.33273315429688 5.157955169677734 55.56948471069336 3.143355131149292 C 50.63808441162109 1.057588338851929 45.39961624145508 5.041503754910082e-06 39.99959945678711 5.041503754910082e-06 C 34.5995979309082 5.041503754910082e-06 29.36118316650391 1.057588338851929 24.42986679077148 3.143355131149292 C 19.66674995422363 5.157938480377197 15.38901615142822 8.042037963867188 11.71553325653076 11.71552181243896 C 8.042033195495605 15.3890380859375 5.157932758331299 19.66675567626953 3.143349647521973 24.42987251281738 C 1.057566285133362 29.36120414733887 -4.089355343239731e-07 34.5996208190918 -4.089355343239731e-07 39.99960327148438 C -4.089355343239731e-07 45.03855514526367 2.102782964706421 52.37980651855469 6.249932765960693 61.81941986083984 C 9.567649841308594 69.37108612060547 14.19376659393311 78.27503967285156 19.99979972839355 88.28392028808594 C 29.83913230895996 105.245719909668 39.89833450317383 119.8529586791992 39.99878311157227 119.9985198974609 L 39.99959945678711 119.9997024536133 M 39.99959945678711 23.00040435791016 C 49.37348175048828 23.00040435791016 56.99969863891602 30.62622261047363 56.99969863891602 39.99960327148438 C 56.99969863891602 49.37347030639648 49.37348175048828 56.99968719482422 39.99959945678711 56.99968719482422 C 30.62621688842773 56.99968719482422 23.00040054321289 49.37347030639648 23.00040054321289 39.99960327148438 C 23.00040054321289 30.62622261047363 30.62621688842773 23.00040435791016 39.99959945678711 23.00040435791016 M 40.00031661987305 123.5194702148438 L 38.35273361206055 121.134521484375 C 38.25171661376953 120.988151550293 28.1434326171875 106.3083877563477 18.26980018615723 89.28746795654297 C 12.4265832901001 79.21446990966797 7.766449451446533 70.24355316162109 4.418849468231201 62.62387084960938 C 0.1596162617206573 52.92912292480469 -2.000000476837158 45.31722259521484 -2.000000476837158 39.99960327148438 C -2.000000476837158 34.33049011230469 -0.8892670869827271 28.8299388885498 1.301349639892578 23.65077209472656 C 3.416749477386475 18.64928817749023 6.444782733917236 14.15787124633789 10.3013162612915 10.30130481719971 C 14.15783309936523 6.444788455963135 18.64925003051758 3.416754961013794 23.65078353881836 1.30133843421936 C 28.8299503326416 -0.8892616033554077 34.33049774169922 -1.999994993209839 39.99959945678711 -1.999994993209839 C 45.66871643066406 -1.999994993209839 51.1693000793457 -0.8892616033554077 56.34856796264648 1.30133843421936 C 61.35018157958984 3.416754961013794 65.84168243408203 6.444771766662598 69.69831848144531 10.30128860473633 C 73.55498504638672 14.15783882141113 76.58311462402344 18.64925575256348 78.69861602783203 23.65075492858887 C 80.88931274414062 28.82995414733887 82.00009918212891 34.33050537109375 82.00009918212891 39.99960327148438 C 82.00009918212891 45.31722259521484 79.84043121337891 52.92913818359375 75.58108520507812 62.6238899230957 C 72.23343658447266 70.24356842041016 67.57318115234375 79.21450805664062 61.72983169555664 89.28749084472656 C 51.84453201293945 106.3281555175781 41.74723434448242 120.9885406494141 41.64640045166016 121.1346206665039 L 40.00031661987305 123.5194702148438 Z M 39.99959945678711 25.00040435791016 C 31.7290153503418 25.00040435791016 25.00040054321289 31.7290210723877 25.00040054321289 39.99960327148438 C 25.00040054321289 48.27067184448242 31.7290153503418 54.99968719482422 39.99959945678711 54.99968719482422 C 48.27068328857422 54.99968719482422 54.99969863891602 48.27067184448242 54.99969863891602 39.99960327148438 C 54.99969863891602 31.7290210723877 48.27068328857422 25.00040435791016 39.99959945678711 25.00040435791016 Z" stroke="none" fill="#fff"/>
  </g>
</svg>